<svg width="14" height="14" viewBox="0 0 14 14" fill="none" xmlns="http://www.w3.org/2000/svg">
<path d="M7 1.1665C6.23395 1.1665 5.47541 1.31739 4.76768 1.61054C4.05995 1.90369 3.41688 2.33337 2.87521 2.87505C1.78125 3.96901 1.16666 5.45274 1.16666 6.99984C1.16157 8.34683 1.62796 9.65315 2.485 10.6923L1.31833 11.859C1.23739 11.941 1.18256 12.0452 1.16076 12.1584C1.13896 12.2715 1.15116 12.3886 1.19583 12.4948C1.24428 12.5998 1.32283 12.688 1.42149 12.7482C1.52016 12.8085 1.6345 12.838 1.75 12.8332H7C8.5471 12.8332 10.0308 12.2186 11.1248 11.1246C12.2188 10.0307 12.8333 8.54693 12.8333 6.99984C12.8333 5.45274 12.2188 3.96901 11.1248 2.87505C10.0308 1.78109 8.5471 1.1665 7 1.1665ZM7 11.6665H3.15583L3.69833 11.124C3.80698 11.0147 3.86796 10.8669 3.86796 10.7128C3.86796 10.5586 3.80698 10.4108 3.69833 10.3015C2.93451 9.53853 2.45885 8.53432 2.3524 7.45997C2.24595 6.38562 2.5153 5.30759 3.11455 4.40956C3.7138 3.51153 4.60588 2.84905 5.6388 2.53499C6.67172 2.22093 7.78158 2.27472 8.77929 2.6872C9.777 3.09968 10.6008 3.84533 11.1104 4.79711C11.62 5.74888 11.7838 6.8479 11.574 7.90692C11.3641 8.96594 10.7936 9.91945 9.95956 10.605C9.12553 11.2905 8.07961 11.6657 7 11.6665Z" fill="#C82179"/>
</svg>
